<svg viewBox="0 0 24 24" xmlns="http://www.w3.org/2000/svg" xmlns:xlink="http://www.w3.org/1999/xlink" width="24.000000" height="24.000000" fill="none">
	<rect id="material-symbols:mail-outline-rounded" width="24.000000" height="24.000000" x="0.000000" y="0.000000" fill="rgb(255,255,255)" fill-opacity="0" />
	<path id="Vector" d="M4 20C3.45 20 2.97933 19.8043 2.588 19.413C2.196 19.021 2 18.55 2 18L2 6C2 5.45 2.196 4.97933 2.588 4.588C2.97933 4.196 3.45 4 4 4L20 4C20.55 4 21.021 4.196 21.413 4.588C21.8043 4.97933 22 5.45 22 6L22 18C22 18.55 21.8043 19.021 21.413 19.413C21.021 19.8043 20.55 20 20 20L4 20ZM20 8L12.525 12.675C12.4417 12.725 12.354 12.7623 12.262 12.787C12.1707 12.8123 12.0833 12.825 12 12.825C11.9167 12.825 11.8293 12.8123 11.738 12.787C11.646 12.7623 11.5583 12.725 11.475 12.675L4 8L4 18L20 18L20 8ZM12 11L20 6L4 6L12 11ZM4 8.25L4 6.775L4 6.8L4 6.787L4 8.25Z" fill="rgb(0,0,0)" fill-rule="nonzero" />
</svg>
